<svg width="24" height="24" viewBox="0 0 24 24" fill="none" xmlns="http://www.w3.org/2000/svg">
<g clip-path="url(#clip0_34_2581)">
<path d="M0.480005 2.88C0.320875 2.88 0.168263 2.94322 0.0557408 3.05574C-0.056781 3.16826 -0.119995 3.32087 -0.119995 3.48V20.52C-0.119995 20.6791 -0.056781 20.8317 0.0557408 20.9443C0.168263 21.0568 0.320875 21.12 0.480005 21.12H16.5312C16.3214 20.844 16.1122 20.5678 15.9014 20.292C15.6394 19.9054 15.2587 19.5744 15.1471 19.1045C13.6039 19.7414 11.8308 19.8005 10.2473 19.2718C10.2125 19.2605 10.1784 19.2466 10.1438 19.2348C9.96216 19.4124 9.76632 19.722 9.73536 19.92H7.45368C7.62504 19.3394 7.2612 18.433 7.60536 17.8421C7.63272 17.8349 7.66584 17.7886 7.68096 17.7408C7.64209 17.7043 7.60273 17.6688 7.56481 17.6316C7.22737 17.7343 7.09248 17.9885 6.9048 18.2114C7.00728 18.6972 6.2676 18.5822 6.34225 19.0778C6.85752 19.4774 5.86656 19.1729 5.57184 19.2048C5.25912 19.2082 4.34424 18.8808 4.66176 19.5504C4.61208 19.7342 4.65792 19.847 4.74936 19.92H4.6092C4.58736 19.7098 4.19136 19.6786 4.03872 19.5754C3.78168 19.513 3.47473 19.4818 3.20856 19.3632C3.14016 19.5533 2.52288 19.7707 2.38776 19.92H1.08V11.1526C1.26408 11.2759 1.67688 11.227 1.11432 10.9606H1.08V8.1972C1.1892 8.142 1.2672 8.12448 1.2624 8.21688C1.53288 8.12568 1.65072 7.46736 2.11872 7.73688C2.41056 7.77984 2.89344 8.23224 2.6508 8.28888C2.83992 8.75064 2.97408 8.45328 3.20616 9.0036C3.04728 9.75624 3.65568 10.314 3.98952 10.7938C4.38936 10.9598 4.54752 11.4768 5.19744 11.497C5.28576 11.5742 5.39904 11.6443 5.51713 11.7115C5.54952 11.4634 5.59537 11.2171 5.6532 10.9738C5.6376 10.9702 5.62248 10.968 5.60568 10.9625C4.98048 11.5392 4.85232 10.5408 5.46288 10.5017C5.50368 10.499 5.54761 10.5012 5.59488 10.5077C5.66568 10.4993 5.72448 10.5077 5.77416 10.5252C5.97466 9.86789 6.27174 9.24404 6.65568 8.67408C6.86187 8.36642 7.0933 8.07646 7.3476 7.8072C7.22136 7.596 7.09224 7.47816 6.93984 7.75392C6.92832 7.34472 5.82192 6.91584 6.636 7.30848C7.06296 7.6764 7.20288 7.24464 7.27032 6.94992C7.63632 6.56832 6.8952 6.438 7.03032 6.18864C6.80568 5.85192 6.47304 5.50704 6.13129 5.29848C5.4684 5.37528 5.23608 5.23536 6.1224 5.23488C6.20232 4.82088 6.33504 4.5276 6.42649 4.17912C6.33048 4.15152 6.23017 4.15584 6.13129 4.1556C5.7072 4.09872 5.45544 4.26265 5.46408 4.58641C5.1456 4.56096 5.43168 4.01809 4.94064 4.18393C4.19617 4.17217 5.09616 4.42368 5.02704 4.45992C4.94184 4.65096 4.40544 4.53192 4.46856 4.72561C4.2228 4.27104 4.11096 4.94232 3.91968 4.48248C3.80449 4.37208 4.40208 4.59144 4.266 4.18896C3.96504 4.07376 3.85728 4.27536 3.6228 4.35768C2.92296 4.74504 3.74496 5.10936 4.1004 5.23848C4.63608 5.09568 4.6356 4.9152 5.00808 5.11368C5.42568 5.34528 4.5864 5.18256 4.61208 5.53896C4.56408 5.31745 4.50409 5.18376 4.24488 5.46768C3.89928 5.53008 3.74496 5.05512 3.48696 5.08848C2.89896 5.00856 3.11856 6.33096 3.60288 5.88072C3.89592 6.38784 3.22848 6.01368 3.03048 5.95704C2.58336 6.45648 2.10168 5.94408 1.56792 5.92344C1.39704 5.80968 1.22952 5.80824 1.08 5.86608V4.08H7.37352C6.92472 4.09224 6.52392 4.15152 6.68712 4.47432C6.66073 5.09688 7.46616 4.60249 7.58208 5.16552C7.91664 5.55889 7.38312 6.39528 7.96176 6.2484C7.74888 6.50736 7.77552 6.91992 7.9416 7.24512C8.55598 6.72947 9.25275 6.32089 10.0027 6.03648C10.0159 5.96256 10.0056 5.8776 9.96144 5.77728C9.88632 5.40072 10.2358 5.28048 10.1134 4.86288C10.278 4.54848 10.1503 4.21584 9.86808 4.08H22.92V5.77872C22.8828 5.76277 22.8445 5.7493 22.8055 5.7384C22.4674 6.04488 22.7407 6.07392 22.92 6.00504V6.27288C22.5202 6.048 22.081 6.02328 21.6545 6.11688C21.4608 5.78016 20.7751 5.78808 20.5495 5.48496C20.1521 5.0088 20.6707 5.15088 21.0175 5.11416C20.9191 4.81656 20.3287 4.67545 20.0794 4.72465C19.6289 4.97136 20.316 5.19265 20.2466 5.52384C20.2466 5.76456 19.9531 5.76624 19.697 5.75305C19.8005 5.49816 19.2067 5.18472 18.9713 5.39208C18.5256 5.2572 18.3557 5.33641 18.6497 4.87224C18.547 4.51537 18.1224 4.50864 17.9321 4.26096C17.689 4.77648 17.2836 4.62024 16.8492 4.93416C16.6752 5.18856 16.3128 5.41704 16.2948 5.58504C16.0255 5.71152 15.756 5.06616 15.5671 5.63784C15.3958 6.12168 15.5767 6.35616 14.9986 5.96016C14.4002 5.32248 16.2005 4.77624 15.5314 4.5048C14.976 4.6668 14.6422 5.05824 14.5318 5.61432C14.472 5.7408 14.4991 5.82888 14.5622 5.90016C16.6704 6.52896 18.415 8.22432 19.1242 10.3042C19.1352 10.1789 19.1561 10.0584 19.1981 9.97032C19.3754 9.83496 19.2348 10.4899 19.6013 10.1174C19.3313 10.697 20.28 10.1942 20.4084 9.95496C20.2202 9.48264 21.0852 9.26017 21.065 9.17112C20.7466 8.83705 20.9275 9.16945 20.5762 9.24601C20.4598 9.09097 20.7994 8.24088 20.3474 8.31888C19.6726 8.14512 20.9215 7.64809 21.2587 7.83097C21.4123 7.26265 21.6331 7.71528 21.2537 7.97664C21.1092 8.48088 21.1783 9.16873 21.6034 8.4948C21.7944 8.3088 21.7469 7.82401 21.9955 7.73952C22.3296 7.58209 22.9258 7.45896 22.9102 6.97224C22.9135 6.97128 22.9166 6.97152 22.92 6.9708V19.92H21.9698C22.1758 19.6349 22.4482 19.1472 22.1597 18.9703C21.725 18.8952 21.4003 18.371 20.875 18.3929C20.6378 18.1198 20.0918 17.9815 19.945 17.9282C19.7981 17.875 19.5432 18.1829 19.2821 18.0468C19.2035 18.0341 19.1233 18.0356 19.0452 18.0511C19.831 19.0711 20.6093 20.0966 21.3905 21.12H23.52C23.6791 21.12 23.8317 21.0568 23.9443 20.9443C24.0568 20.8317 24.12 20.6791 24.12 20.52V3.48C24.12 3.32087 24.0568 3.16826 23.9443 3.05574C23.8317 2.94322 23.6791 2.88 23.52 2.88H0.480005ZM12.1656 4.1568C11.7792 4.34712 12.4644 5.1048 12.4834 4.38144C12.5542 4.48704 13.0291 4.59361 12.8738 4.25304C12.5287 4.04976 12.581 4.28352 12.1654 4.15704M17.7048 4.15752C17.2879 4.36056 18.0696 4.3644 17.7048 4.15752V4.15752ZM4.4616 4.22641C4.1496 4.45825 4.91952 4.68768 4.5024 4.23864L4.4616 4.22641ZM7.01641 4.36392C6.93936 4.41216 7.0944 4.4388 7.01641 4.36392V4.36392ZM4.0032 4.66032C3.984 4.66344 4.03993 4.7028 4.0032 4.66032V4.66032ZM5.07192 4.7592C5.04312 4.9128 5.448 4.82448 5.07192 4.7592V4.7592ZM5.59872 4.8024C5.73 4.8912 5.95632 4.7796 5.59872 4.8024V4.8024ZM4.54872 4.81824C4.51896 4.926 4.78128 4.84224 4.54872 4.81824V4.81824ZM5.2932 5.15616C5.17753 5.22936 5.5284 5.2104 5.2932 5.15616V5.15616ZM5.45904 5.53032C5.31744 5.982 5.96232 6.59352 5.46192 6.07872C5.3244 5.8728 5.25288 5.67552 5.45904 5.53032ZM4.61952 5.57592C4.82568 5.92032 5.1396 6.01224 4.8768 6.1308C4.70232 6.04632 4.662 5.78328 4.61952 5.57592ZM7.85449 5.92297C7.77625 5.92777 7.88352 5.9424 7.85449 5.92297V5.92297ZM2.98824 6.03168C2.95104 6.03336 2.96136 6.14064 2.98824 6.03168V6.03168ZM4.8468 6.20784C4.73712 6.20376 4.83 6.43488 4.8468 6.20784V6.20784ZM6.22633 6.20928C6.13656 6.65328 6.49272 6.62496 6.46872 6.66961C6.17448 6.79921 6.2448 7.33296 6.01968 6.92568C5.8776 6.85944 6.09264 6.27336 6.18936 6.222L6.22633 6.20928ZM4.77984 6.20976C4.77768 6.31368 4.81129 6.21696 4.77984 6.20976V6.20976ZM22.1405 6.2496C22.0987 6.29041 22.1501 6.26592 22.1405 6.2496V6.2496ZM4.79712 6.30768C4.57776 6.46368 4.9608 6.47904 4.79712 6.30768V6.30768ZM12.4238 6.5436C11.1151 6.5527 9.84476 6.98681 8.80416 7.78056C6.14256 9.80736 5.62464 13.6282 7.65144 16.2898C9.54865 18.7812 13.013 19.3822 15.6314 17.7869L16.1316 18.4438C16.0332 18.6727 16.0423 18.8916 16.1568 19.0423L19.7856 23.8075C20.0016 24.091 20.5231 24.0571 20.9503 23.7317C21.3775 23.4065 21.5486 22.9128 21.3329 22.6291L17.7041 17.8639C17.5894 17.7132 17.3808 17.646 17.1338 17.6801L16.6337 17.0234C18.8678 14.9234 19.2103 11.4242 17.3134 8.93281C16.2998 7.60201 14.8378 6.80761 13.2965 6.5988C13.0073 6.55965 12.7157 6.54121 12.4238 6.5436ZM5.61049 7.14552C5.76049 7.50169 6.33984 7.29264 6.11304 7.77816C6.36552 8.01576 6.07296 8.85336 5.9748 8.13961C5.34648 8.13649 5.04648 7.5096 5.574 7.18056L5.61049 7.14552ZM6.15793 7.20456C5.85553 7.29552 6.34993 7.36776 6.15793 7.20456V7.20456ZM21.2366 7.64328C21.2534 7.63128 21.2952 7.71744 21.2366 7.64328V7.64328ZM12.6655 7.88832C13.362 7.91488 14.0439 8.09571 14.662 8.41778C15.2801 8.73984 15.819 9.19511 16.2398 9.75072C16.6168 10.2436 16.8928 10.8061 17.0518 11.4059C17.2109 12.0058 17.2499 12.6311 17.1666 13.246C17.0833 13.8609 16.8794 14.4534 16.5666 14.9893C16.2538 15.5252 15.8382 15.9941 15.3437 16.369C14.8508 16.746 14.2883 17.022 13.6884 17.181C13.0886 17.3401 12.4632 17.3791 11.8483 17.2959C11.2333 17.2126 10.6409 17.0087 10.1049 16.6958C9.56896 16.383 9.10009 15.9673 8.7252 15.4728C8.34821 14.9799 8.07229 14.4174 7.91327 13.8176C7.75424 13.2177 7.71526 12.5924 7.79855 11.9775C7.88184 11.3625 8.08576 10.7701 8.39861 10.2342C8.71146 9.69828 9.12708 9.22943 9.6216 8.85457C10.4926 8.18761 11.5693 7.84585 12.6655 7.88832ZM21.9266 8.13552C21.5498 8.44728 22.379 8.39016 21.9266 8.13552V8.13552ZM22.3754 8.3952C21.9583 8.59896 22.74 8.5992 22.3754 8.3952V8.3952ZM22.6471 8.49024C22.2751 8.79984 23.0263 8.63712 22.6471 8.49024V8.49024ZM22.6322 8.55744C22.6195 8.57928 22.6529 8.5572 22.6322 8.55744V8.55744ZM22.6678 8.59609C22.6378 8.59993 22.679 8.61433 22.6678 8.59609V8.59609ZM12.5064 8.84641C11.9818 8.83704 11.4638 8.9544 10.9862 9.16512C11.0112 9.1956 11.047 9.22488 11.0993 9.25129C10.6193 9.09528 10.4796 9.70177 10.6817 9.97465L11.0064 10.0013L11.2778 9.88176C11.4533 9.69936 11.497 9.7308 11.5536 9.45457L11.6594 9.46824L11.7434 9.4332L11.9347 9.52777C12.1642 9.61753 12.175 9.81097 12.0982 9.86761C11.9894 9.93457 12.1176 9.94441 12.1282 9.98593C12.1824 9.97032 12.2141 9.92352 12.2482 9.89856L12.3096 9.87648C12.5338 9.72936 12.3773 9.68088 12.2215 9.4824L12.3041 9.50352C12.4248 9.64032 12.4958 9.79513 12.5674 9.95953C12.5755 9.966 12.583 9.9744 12.5923 9.97728C12.6466 9.99528 12.7231 9.98928 12.7886 9.97128C12.8534 9.95353 12.8578 9.82992 12.8467 9.7116C12.9391 10.133 13.8454 10.0078 13.3061 10.2648C12.9953 10.2718 12.5014 10.1014 12.4104 10.3166C12.2093 10.2254 12.1066 10.1657 12.0658 10.1189C11.9419 10.0723 11.5855 9.93744 11.5728 9.93744C11.5577 9.93744 11.1041 10.02 11.1041 10.02L10.7297 10.1621C10.608 10.5542 10.416 10.3445 10.3507 10.6486C10.2996 10.843 9.85968 11.263 10.0901 11.5937C10.2958 12.5503 11.4883 11.9134 11.7662 12.3727C11.6357 12.6557 12.2815 13.194 11.9201 13.6574C12.0905 14.3306 12.5484 15.456 13.2852 14.4979C13.4796 13.9243 13.8982 13.6142 13.8833 13.0452C13.6608 12.4848 14.9705 12.0694 14.4466 11.6155C14.321 11.6304 14.3066 11.6575 14.207 11.6906C13.9978 11.6827 13.9438 11.514 13.8725 11.4079C13.8181 11.3305 13.7699 11.2489 13.7285 11.1638C13.8617 11.3702 13.9992 11.5454 14.1922 11.6532C14.526 11.5783 14.9088 11.3314 15.0646 11.1502C15.0607 10.4438 16.0102 11.1766 15.991 11.7074C16.0498 11.8505 16.1244 11.9498 16.1993 12.0079C16.1461 11.6684 16.0447 11.3382 15.8983 11.0273C15.6322 10.4431 15.2059 9.94152 14.688 9.56616C14.6784 9.58105 14.6544 9.58201 14.6592 9.54601C14.5892 9.4964 14.5175 9.4491 14.4444 9.40416C14.4523 9.43752 14.4619 9.47136 14.473 9.50568C14.4415 9.45888 14.4084 9.41136 14.381 9.36552C13.8156 9.0324 13.1671 8.84136 12.5066 8.84617L12.5064 8.84641ZM20.3153 8.87808C20.4893 9.37392 19.71 10.523 19.5967 9.76872C19.6766 9.39576 20.3162 9.45192 20.3153 8.87808ZM5.70528 9.00912C5.69976 9.02712 5.74032 9.00504 5.70528 9.00912V9.00912ZM6.07512 9.1836C5.99064 9.22728 6.14496 9.24168 6.07512 9.1836V9.1836ZM13.2818 9.19945C13.4755 9.36265 14.0698 9.57864 13.4407 9.40632C13.1134 9.55584 13.0121 9.46008 13.2818 9.19945ZM11.7847 9.48984C11.7425 9.5028 11.7782 9.5904 11.7518 9.618C11.9318 9.70608 11.831 9.53472 11.8577 9.50664C11.8212 9.48936 11.7986 9.48528 11.7847 9.48984ZM14.5286 9.66864C14.5843 9.81336 14.6213 9.90577 14.4782 9.72624C14.4901 9.7205 14.5006 9.71244 14.5093 9.70255C14.5179 9.69265 14.5245 9.68113 14.5286 9.66864ZM11.8015 9.68664C11.731 9.67896 11.6935 9.72624 11.6933 9.79224C11.8793 9.89328 11.8601 9.72648 11.8829 9.71376C11.8576 9.6998 11.8302 9.6906 11.8015 9.68664ZM14.675 10.7146C14.7811 10.7189 14.5735 10.8682 14.609 10.723C14.6386 10.7165 14.6599 10.7138 14.675 10.7146ZM21.9857 11.6534C21.6401 12.0206 22.3975 12.0852 21.9857 11.6534V11.6534ZM21.9617 11.7106C21.9552 11.735 21.9972 11.7067 21.9617 11.7106V11.7106ZM21.9914 11.7631C21.9554 11.7571 21.9948 11.7878 21.9914 11.7631V11.7631ZM22.2427 11.8111C21.9079 12.1025 22.6469 11.9964 22.2427 11.8111V11.8111ZM22.2787 11.8939C22.2739 11.9292 22.3042 11.8896 22.2787 11.8939V11.8939ZM22.2314 11.9066C22.212 11.9234 22.2535 11.9364 22.2314 11.9066V11.9066ZM19.4962 12.2839C19.5022 12.4337 19.5034 12.5832 19.5 12.7327C19.7753 12.7766 20.1202 12.7642 20.1266 13.0687C20.6201 13.0901 20.0758 13.8108 20.0578 13.1436C19.8567 13.1146 19.6517 13.1494 19.4714 13.243C19.4214 13.7667 19.3142 14.2834 19.1518 14.7838C19.555 14.6558 19.9663 14.6683 20.2092 15.0602C20.8488 15.0578 20.3047 15.4939 20.7581 15.583C20.9513 15.1884 20.6563 15.2381 21.0187 14.9165C21.3703 14.467 21.1402 13.8864 20.7895 13.6409C20.7166 13.363 20.4259 13.2127 20.5627 13.0231C20.8291 13.3843 21.2066 13.1138 20.8915 12.9185C21.1241 12.7013 21.955 13.4782 21.4884 12.8806C21.258 12.8378 20.9414 12.3614 20.8697 12.6682C20.849 12.9226 20.2142 12.282 19.98 12.5441C19.9123 12.3079 19.5811 12.4505 19.5624 12.5558C19.6642 12.3974 19.6001 12.3156 19.4962 12.2839ZM20.7173 12.4891C20.3734 12.6845 21.0278 12.6778 20.7173 12.4891V12.4891ZM11.7329 12.5059C11.725 12.5162 11.7605 12.5683 11.7329 12.5059V12.5059ZM8.72016 12.5352C8.71304 12.8685 8.75008 13.2012 8.83032 13.5247C9.10632 13.1066 9.09552 12.714 8.72016 12.5352ZM20.6995 12.5467C20.6741 12.5525 20.7202 12.5616 20.6995 12.5467V12.5467ZM20.9321 12.5755C20.8198 12.6547 21.0442 12.6547 20.9321 12.5755V12.5755ZM20.9321 12.5779C20.8298 12.6514 21.0341 12.6514 20.9321 12.5779V12.5779ZM20.7226 12.5988C20.687 12.5945 20.7264 12.623 20.7226 12.5988V12.5988ZM19.4981 12.8594C19.4957 12.917 19.4906 12.9746 19.4868 13.0322C19.5643 12.9449 19.5979 12.8546 19.4981 12.8594ZM14.028 13.1081C13.7506 13.2605 14.3249 13.3301 14.0849 13.1513L14.0746 13.1256L14.028 13.1081ZM14.3525 13.1508C14.0784 13.3222 13.6531 14.1391 14.2428 14.1648C14.3849 13.9958 14.7451 13.2425 14.3525 13.1508ZM21.7867 13.6711C21.5671 14.1043 22.4244 13.931 21.7867 13.6711V13.6711ZM14.7917 13.7287C14.435 13.968 15.1375 13.9378 14.7917 13.7287V13.7287ZM22.3591 14.7166C22.5622 15.1762 21.8887 15.4514 21.9396 15.8782C22.2852 16.0447 22.4635 15.4178 22.7069 15.2261C22.9946 14.9746 22.4803 14.9002 22.3591 14.7166ZM6.3972 16.1302C6.43656 16.3831 6.55512 16.6279 6.7668 16.7026C6.63445 16.5178 6.51111 16.3268 6.3972 16.1302Z" fill="white"/>
</g>
<defs>
<clipPath id="clip0_34_2581">
<rect width="24" height="24" fill="white"/>
</clipPath>
</defs>
</svg>
