<svg width="22" height="26" viewBox="0 0 22 26" fill="none" xmlns="http://www.w3.org/2000/svg">
<path d="M13.6667 1V6.33333C13.6667 6.68695 13.8072 7.02609 14.0572 7.27614C14.3073 7.52619 14.6464 7.66667 15 7.66667H20.3334" stroke="#737791" stroke-width="2" stroke-linecap="round" stroke-linejoin="round"/>
<path d="M7.00002 19.6667H15M7.00002 14.3333H15M17.6667 25H4.33335C3.62611 25 2.94783 24.719 2.44774 24.219C1.94764 23.7189 1.66669 23.0406 1.66669 22.3333V3.66667C1.66669 2.95942 1.94764 2.28115 2.44774 1.78105C2.94783 1.28095 3.62611 1 4.33335 1H13.6667L20.3334 7.66667V22.3333C20.3334 23.0406 20.0524 23.7189 19.5523 24.219C19.0522 24.719 18.3739 25 17.6667 25Z" stroke="#737791" stroke-width="2" stroke-linecap="round" stroke-linejoin="round"/>
</svg>
