<svg width="16" height="18" viewBox="0 0 16 18" fill="none" xmlns="http://www.w3.org/2000/svg">
<path d="M10.2937 8.74999V16.1375C10.3312 16.4187 10.2374 16.7187 10.0218 16.9156C9.93505 17.0025 9.83203 17.0715 9.71862 17.1185C9.60521 17.1656 9.48363 17.1898 9.36085 17.1898C9.23807 17.1898 9.11649 17.1656 9.00308 17.1185C8.88966 17.0715 8.78664 17.0025 8.69991 16.9156L6.81554 15.0312C6.71335 14.9312 6.63564 14.809 6.58848 14.674C6.54132 14.539 6.52598 14.395 6.54366 14.2531V8.74999H6.51554L1.11554 1.83125C0.9633 1.63581 0.894606 1.38805 0.924469 1.14212C0.954332 0.896189 1.08033 0.672074 1.27492 0.51875C1.45304 0.3875 1.64992 0.3125 1.85617 0.3125H14.9812C15.1874 0.3125 15.3843 0.3875 15.5624 0.51875C15.757 0.672074 15.883 0.896189 15.9129 1.14212C15.9427 1.38805 15.874 1.63581 15.7218 1.83125L10.3218 8.74999H10.2937Z" fill="#737791"/>
</svg>
