<svg width="28" height="24" viewBox="0 0 28 24" fill="none" xmlns="http://www.w3.org/2000/svg">
<path fill-rule="evenodd" clip-rule="evenodd" d="M5.76667 3C4.50255 3 3.47778 3.89545 3.47778 5V19C3.47778 20.1046 4.50255 21 5.76667 21H21.7889C23.053 21 24.0778 20.1046 24.0778 19V5C24.0778 3.89545 23.053 3 21.7889 3H5.76667ZM9.20001 13C9.20001 12.4477 8.68762 12 8.05556 12C7.4235 12 6.91112 12.4477 6.91112 13V17C6.91112 17.5523 7.4235 18 8.05556 18C8.68762 18 9.20001 17.5523 9.20001 17V13ZM13.7778 9C14.4098 9 14.9222 9.44769 14.9222 10V17C14.9222 17.5523 14.4098 18 13.7778 18C13.1457 18 12.6333 17.5523 12.6333 17V10C12.6333 9.44769 13.1457 9 13.7778 9ZM20.6445 7C20.6445 6.44769 20.1321 6 19.5 6C18.8679 6 18.3556 6.44769 18.3556 7V17C18.3556 17.5523 18.8679 18 19.5 18C20.1321 18 20.6445 17.5523 20.6445 17V7Z" fill="white"/>
</svg>
