<svg width="32" height="32" viewBox="0 0 32 32" fill="none" xmlns="http://www.w3.org/2000/svg">
<path d="M12.5749 8.21815C12.5749 7.09943 12.9357 6.02652 13.5781 5.23547C14.2204 4.44441 15.0916 4 16 4C16.9084 4 17.7796 4.44441 18.4219 5.23547C19.0643 6.02652 19.4251 7.09943 19.4251 8.21815C19.4251 9.33687 19.0643 10.4098 18.4219 11.2008C17.7796 11.9919 16.9084 12.4363 16 12.4363C15.0916 12.4363 14.2204 11.9919 13.5781 11.2008C12.9357 10.4098 12.5749 9.33687 12.5749 8.21815ZM16 6.11119C15.7753 6.11119 15.5529 6.16568 15.3453 6.27157C15.1377 6.37745 14.9491 6.53265 14.7902 6.7283C14.6314 6.92395 14.5054 7.15622 14.4194 7.41185C14.3334 7.66748 14.2891 7.94146 14.2891 8.21815C14.2891 8.49484 14.3334 8.76882 14.4194 9.02445C14.5054 9.28008 14.6314 9.51235 14.7902 9.708C14.9491 9.90365 15.1377 10.0588 15.3453 10.1647C15.5529 10.2706 15.7753 10.3251 16 10.3251C16.4537 10.3251 16.8889 10.1031 17.2098 9.708C17.5306 9.31286 17.7109 8.77695 17.7109 8.21815C17.7109 7.65935 17.5306 7.12343 17.2098 6.7283C16.8889 6.33317 16.4537 6.11119 16 6.11119ZM21.1429 9.27374C21.1429 8.85787 21.2094 8.44608 21.3386 8.06187C21.4678 7.67766 21.6572 7.32855 21.896 7.03449C22.1348 6.74043 22.4183 6.50716 22.7302 6.34802C23.0422 6.18887 23.3766 6.10696 23.7143 6.10696C24.052 6.10696 24.3863 6.18887 24.6983 6.34802C25.0103 6.50716 25.2938 6.74043 25.5326 7.03449C25.7713 7.32855 25.9608 7.67766 26.09 8.06187C26.2192 8.44608 26.2857 8.85787 26.2857 9.27374C26.2857 10.1136 26.0148 10.9191 25.5326 11.513C25.0503 12.1069 24.3963 12.4405 23.7143 12.4405C23.0323 12.4405 22.3782 12.1069 21.896 11.513C21.4138 10.9191 21.1429 10.1136 21.1429 9.27374ZM23.7143 8.21815C23.487 8.21815 23.2689 8.32936 23.1082 8.52732C22.9474 8.72529 22.8571 8.99378 22.8571 9.27374C22.8571 9.5537 22.9474 9.82219 23.1082 10.0202C23.2689 10.2181 23.487 10.3293 23.7143 10.3293C23.9416 10.3293 24.1596 10.2181 24.3204 10.0202C24.4811 9.82219 24.5714 9.5537 24.5714 9.27374C24.5714 8.99378 24.4811 8.72529 24.3204 8.52732C24.1596 8.32936 23.9416 8.21815 23.7143 8.21815ZM8.28571 6.10696C7.60373 6.10696 6.94968 6.4406 6.46744 7.03449C5.9852 7.62838 5.71429 8.43386 5.71429 9.27374C5.71429 10.1136 5.9852 10.9191 6.46744 11.513C6.94968 12.1069 7.60373 12.4405 8.28571 12.4405C8.9677 12.4405 9.62175 12.1069 10.104 11.513C10.5862 10.9191 10.8571 10.1136 10.8571 9.27374C10.8571 8.43386 10.5862 7.62838 10.104 7.03449C9.62175 6.4406 8.9677 6.10696 8.28571 6.10696ZM7.42857 9.27374C7.42857 8.99378 7.51888 8.72529 7.67962 8.52732C7.84037 8.32936 8.05839 8.21815 8.28571 8.21815C8.51304 8.21815 8.73106 8.32936 8.89181 8.52732C9.05255 8.72529 9.14286 8.99378 9.14286 9.27374C9.14286 9.5537 9.05255 9.82219 8.89181 10.0202C8.73106 10.2181 8.51304 10.3293 8.28571 10.3293C8.05839 10.3293 7.84037 10.2181 7.67962 10.0202C7.51888 9.82219 7.42857 9.5537 7.42857 9.27374ZM8.27075 14.5517C8.8906 14.5517 9.31624 15.1977 9.21372 15.809V15.809C9.13642 16.27 8.76397 16.6629 8.29657 16.6629H7.4286C6.48181 16.6629 5.71429 17.4304 5.71429 18.3772V21.9409C5.71415 22.466 5.82005 22.9829 6.02246 23.4451C6.22487 23.9073 6.51743 24.3003 6.87381 24.5886C7.23019 24.8769 7.6392 25.0516 8.06402 25.0969C8.08112 25.0987 8.09822 25.1003 8.11533 25.1017C8.72425 25.1515 9.42329 25.4768 9.60755 26.0593V26.0593C9.75033 26.5107 9.56267 27.0138 9.10221 27.1239C8.68689 27.2232 8.26042 27.2465 7.83667 27.1915C7.13886 27.101 6.46979 26.8008 5.88819 26.3174C5.30659 25.834 4.83026 25.1821 4.50104 24.419C4.17182 23.6559 3.99977 22.805 4 21.9409V16.6629C4 16.103 4.18061 15.566 4.5021 15.1701C4.82359 14.7741 5.25963 14.5517 5.71429 14.5517H8.27075ZM22.3927 26.0568C22.2502 26.5096 22.4383 27.0144 22.9001 27.1244C23.3147 27.2232 23.7404 27.2464 24.1633 27.1915C24.8611 27.101 25.5302 26.8008 26.1118 26.3174C26.6934 25.834 27.1697 25.1821 27.499 24.419C27.8282 23.6559 28.0002 22.805 28 21.9409V16.6629C28 16.103 27.8194 15.566 27.4979 15.1701C27.1764 14.7741 26.7404 14.5517 26.2857 14.5517H23.7296C23.1098 14.5517 22.6792 15.1797 22.7837 15.7907V15.7907C22.8625 16.2512 23.2359 16.6629 23.7032 16.6629H24.5714C25.5182 16.6629 26.2857 17.4304 26.2857 18.3772V21.9409C26.2859 22.466 26.18 22.9829 25.9775 23.4451C25.7751 23.9073 25.4826 24.3003 25.1262 24.5886C24.7698 24.8769 24.3608 25.0516 23.936 25.0969C23.9181 25.0988 23.9001 25.1005 23.8822 25.1019C23.2734 25.151 22.576 25.4741 22.3927 26.0568V26.0568ZM12.5714 14.5496C12.1168 14.5496 11.6807 14.772 11.3592 15.1679C11.0378 15.5639 10.8571 16.1009 10.8571 16.6608V22.9964C10.8571 24.6762 11.399 26.2872 12.3635 27.4749C13.3279 28.6627 14.636 29.33 16 29.33C17.364 29.33 18.6721 28.6627 19.6365 27.4749C20.601 26.2872 21.1429 24.6762 21.1429 22.9964V16.6629C21.1429 16.103 20.9622 15.566 20.6408 15.1701C20.3193 14.7741 19.8832 14.5517 19.4286 14.5517L12.5714 14.5496ZM12.5714 20.0893C12.5714 18.1958 14.1065 16.6608 16 16.6608V16.6608C17.8935 16.6608 19.4286 18.1958 19.4286 20.0893V22.9964C19.4286 24.1163 19.0673 25.1903 18.4244 25.9821C17.7814 26.774 16.9093 27.2188 16 27.2188C15.0907 27.2188 14.2186 26.774 13.5756 25.9821C12.9327 25.1903 12.5714 24.1163 12.5714 22.9964V20.0893Z" fill="#737791"/>
</svg>
