<svg width="24" height="24" viewBox="0 0 24 24" fill="none" xmlns="http://www.w3.org/2000/svg">
<g style="mix-blend-mode:darken">
<rect width="24" height="24" fill="#3CD856"/>
</g>
<path d="M17.1411 5.6875H20.4234C20.6219 5.6877 20.8133 5.7626 20.9604 5.8977C21.1076 6.0328 21.2 6.21847 21.2199 6.41875L21.7087 11.375H20.0964L19.6958 7.3125H17.1411V9.75C17.1411 9.96549 17.0567 10.1722 16.9064 10.3245C16.7561 10.4769 16.5523 10.5625 16.3398 10.5625C16.1273 10.5625 15.9234 10.4769 15.7732 10.3245C15.6229 10.1722 15.5385 9.96549 15.5385 9.75V7.3125H9.12783V9.75C9.12783 9.96549 9.04341 10.1722 8.89313 10.3245C8.74285 10.4769 8.53903 10.5625 8.3265 10.5625C8.11398 10.5625 7.91016 10.4769 7.75988 10.3245C7.6096 10.1722 7.52517 9.96549 7.52517 9.75V7.3125H4.96893L3.68681 20.3125H12.3331V21.9375H2.80054C2.68861 21.9374 2.57796 21.9135 2.47569 21.8674C2.37343 21.8213 2.28182 21.7539 2.20678 21.6697C2.13174 21.5855 2.07493 21.4863 2.04001 21.3785C2.00508 21.2707 1.99282 21.1567 2.00402 21.0438L3.44641 6.41875C3.46626 6.21847 3.55872 6.0328 3.70588 5.8977C3.85304 5.7626 4.04441 5.6877 4.24293 5.6875H7.52517V5.12038C7.52517 2.30262 9.66633 0 12.3331 0C15 0 17.1411 2.30262 17.1411 5.12038V5.68912V5.6875ZM15.5385 5.6875V5.12038C15.5385 3.18012 14.0929 1.625 12.3331 1.625C10.5734 1.625 9.12783 3.18012 9.12783 5.12038V5.68912H15.5385V5.6875ZM20.582 17.7775C20.6551 17.6969 20.7436 17.632 20.842 17.5869C20.9404 17.5418 21.0469 17.5173 21.1549 17.515C21.2629 17.5127 21.3702 17.5325 21.4705 17.5733C21.5707 17.6141 21.6618 17.675 21.7382 17.7524C21.8147 17.8298 21.8749 17.922 21.9153 18.0236C21.9556 18.1252 21.9753 18.2341 21.9732 18.3436C21.971 18.4531 21.947 18.561 21.9027 18.6609C21.8583 18.7608 21.7945 18.8505 21.7151 18.9247L18.5098 22.1747C18.3595 22.3271 18.1557 22.4126 17.9433 22.4126C17.7308 22.4126 17.527 22.3271 17.3767 22.1747L14.1714 18.9247C14.0949 18.8498 14.0338 18.7601 13.9918 18.661C13.9498 18.5619 13.9277 18.4553 13.9268 18.3474C13.9259 18.2395 13.9461 18.1325 13.9864 18.0327C14.0267 17.9328 14.0862 17.8421 14.1615 17.7658C14.2367 17.6895 14.3262 17.6292 14.4247 17.5883C14.5231 17.5475 14.6287 17.5269 14.7351 17.5279C14.8415 17.5288 14.9466 17.5512 15.0444 17.5938C15.1421 17.6364 15.2306 17.6983 15.3045 17.7759L17.1411 19.6397V13.8125C17.1411 13.597 17.2255 13.3903 17.3758 13.238C17.5261 13.0856 17.7299 13 17.9425 13C18.155 13 18.3588 13.0856 18.5091 13.238C18.6594 13.3903 18.7438 13.597 18.7438 13.8125V19.6397L20.582 17.7759V17.7775Z" fill="white"/>
</svg>
