<svg width="28" height="28" viewBox="0 0 28 28" fill="none" xmlns="http://www.w3.org/2000/svg">
<path d="M13.9334 22C14.4 22 14.7947 21.8386 15.1174 21.516C15.44 21.1933 15.6009 20.7991 15.6 20.3333C15.5991 19.8675 15.4382 19.4729 15.1174 19.1493C14.7965 18.8257 14.4018 18.6649 13.9334 18.6666C13.4649 18.6684 13.0707 18.8297 12.7507 19.1506C12.4307 19.4715 12.2694 19.8657 12.2667 20.3333C12.264 20.8009 12.4254 21.1955 12.7507 21.5173C13.076 21.8391 13.4702 22 13.9334 22ZM12.7334 16.8666H15.2C15.2 16.1333 15.2836 15.5555 15.4507 15.1333C15.6178 14.7111 16.0898 14.1333 16.8667 13.4C17.4445 12.8222 17.9 12.272 18.2334 11.7493C18.5667 11.2266 18.7334 10.5991 18.7334 9.86663C18.7334 8.62219 18.2778 7.66663 17.3667 6.99997C16.4556 6.3333 15.3778 5.99997 14.1334 5.99997C12.8667 5.99997 11.8391 6.3333 11.0507 6.99997C10.2622 7.66663 9.71202 8.46663 9.40002 9.39997L11.6 10.2666C11.7111 9.86663 11.9614 9.4333 12.3507 8.96663C12.74 8.49997 13.3342 8.26663 14.1334 8.26663C14.8445 8.26663 15.3778 8.4613 15.7334 8.85063C16.0889 9.23997 16.2667 9.66752 16.2667 10.1333C16.2667 10.5777 16.1334 10.9946 15.8667 11.384C15.6 11.7733 15.2667 12.1342 14.8667 12.4666C13.8889 13.3333 13.2889 13.9889 13.0667 14.4333C12.8445 14.8777 12.7334 15.6889 12.7334 16.8666ZM14 27.3333C12.1556 27.3333 10.4222 26.9835 8.80002 26.284C7.1778 25.5844 5.76669 24.6342 4.56669 23.4333C3.36669 22.2324 2.41691 20.8213 1.71736 19.2C1.0178 17.5786 0.667578 15.8453 0.666689 14C0.6658 12.1546 1.01602 10.4213 1.71736 8.79997C2.41869 7.17863 3.36847 5.76752 4.56669 4.56663C5.76491 3.36574 7.17602 2.41597 8.80002 1.7173C10.424 1.01863 12.1574 0.66841 14 0.666633C15.8427 0.664855 17.576 1.01508 19.2 1.7173C20.824 2.41952 22.2351 3.3693 23.4334 4.56663C24.6316 5.76397 25.5818 7.17508 26.284 8.79997C26.9862 10.4249 27.336 12.1582 27.3334 14C27.3307 15.8417 26.9805 17.5751 26.2827 19.2C25.5849 20.8249 24.6351 22.236 23.4334 23.4333C22.2316 24.6306 20.8205 25.5809 19.2 26.284C17.5796 26.9871 15.8462 27.3369 14 27.3333ZM14 24.6666C16.9778 24.6666 19.5 23.6333 21.5667 21.5666C23.6334 19.5 24.6667 16.9777 24.6667 14C24.6667 11.0222 23.6334 8.49997 21.5667 6.4333C19.5 4.36663 16.9778 3.3333 14 3.3333C11.0222 3.3333 8.50002 4.36663 6.43336 6.4333C4.36669 8.49997 3.33336 11.0222 3.33336 14C3.33336 16.9777 4.36669 19.5 6.43336 21.5666C8.50002 23.6333 11.0222 24.6666 14 24.6666Z" fill="#737791"/>
</svg>
